<svg width="24" height="25" viewBox="0 0 24 25" fill="none" xmlns="http://www.w3.org/2000/svg">
<g id="facebook 1" clip-path="url(#clip0_43_537)">
<g id="Group">
<path id="Vector" d="M23.8255 12.6168C23.8255 18.4258 19.5695 23.2405 14.0061 24.1133V15.9809H16.7178L17.2337 12.6168H14.0061V10.4338C14.0061 9.51327 14.457 8.61633 15.9027 8.61633H17.3701V5.75234C17.3701 5.75234 16.0381 5.52503 14.7648 5.52503C12.1067 5.52503 10.3692 7.13615 10.3692 10.0529V12.6168H7.41431V15.9809H10.3692V24.1133C4.8058 23.2405 0.549805 18.4258 0.549805 12.6168C0.549805 6.18966 5.76046 0.979004 12.1876 0.979004C18.6148 0.979004 23.8255 6.18966 23.8255 12.6168Z" fill="white"/>
<path id="Vector_2" d="M16.7175 15.981L17.2335 12.617H14.0058V10.4339C14.0058 9.51356 14.4567 8.61645 15.9024 8.61645H17.3699V5.75245C17.3699 5.75245 16.0381 5.52515 14.7648 5.52515C12.1064 5.52515 10.369 7.13626 10.369 10.053V12.617H7.41406V15.981H10.369V24.1134C10.9615 24.2063 11.5688 24.2548 12.1874 24.2548C12.806 24.2548 13.4133 24.2063 14.0058 24.1134V15.981H16.7175Z" fill="#1877F2"/>
</g>
</g>
<defs>
<clipPath id="clip0_43_537">
<rect width="23.2757" height="23.2757" fill="white" transform="translate(0.550781 0.97876)"/>
</clipPath>
</defs>
</svg>
