<svg width="34" height="25" viewBox="0 0 34 25" fill="none" xmlns="http://www.w3.org/2000/svg">
<g id="Group 49">
<path id="Vector" d="M32.6609 4.62057C32.2777 3.19647 31.1549 2.07392 29.731 1.69044C27.1296 0.978516 16.7239 0.978516 16.7239 0.978516C16.7239 0.978516 6.31838 0.978516 3.71695 1.6633C2.32049 2.04653 1.1703 3.19672 0.787073 4.62057C0.102539 7.22175 0.102539 12.6164 0.102539 12.6164C0.102539 12.6164 0.102539 18.0381 0.787073 20.6121C1.17055 22.036 2.2931 23.1588 3.7172 23.5423C6.34577 24.2542 16.7241 24.2542 16.7241 24.2542C16.7241 24.2542 27.1296 24.2542 29.731 23.5694C31.1551 23.1862 32.2777 22.0634 32.6611 20.6395C33.3457 18.0381 33.3457 12.6437 33.3457 12.6437C33.3457 12.6437 33.3731 7.22175 32.6609 4.62057Z" fill="white"/>
<path id="Vector_2" d="M13.4102 17.6003L22.0631 12.6165L13.4102 7.63281V17.6003Z" fill="#FF0000"/>
</g>
</svg>
