<svg width="24" height="25" viewBox="0 0 24 25" fill="none" xmlns="http://www.w3.org/2000/svg">
<g id="linkedin 1">
<g id="_x31_0.Linkedin">
<path id="Vector" d="M21.5637 21.927V21.9263H21.5684V15.0972C21.5684 11.7565 20.8492 9.18286 16.9435 9.18286C15.0659 9.18286 13.806 10.2133 13.2916 11.1899H13.2373V9.49476H9.53418V21.9263H13.3903V15.7706C13.3903 14.1499 13.6975 12.5825 15.7046 12.5825C17.6823 12.5825 17.7116 14.4322 17.7116 15.8744V21.927H21.5637Z" fill="white"/>
<path id="Vector_2" d="M3.25586 9.49536H7.1166V21.9269H3.25586V9.49536Z" fill="white"/>
<path id="Vector_3" d="M5.18434 3.3064C3.94979 3.3064 2.94824 4.30795 2.94824 5.54249C2.94824 6.77703 3.94979 7.79953 5.18434 7.79953C6.41888 7.79953 7.42043 6.77703 7.42043 5.54249C7.4195 4.30795 6.41795 3.3064 5.18434 3.3064Z" fill="white"/>
</g>
</g>
</svg>
