<svg width="24" height="25" viewBox="0 0 24 25" fill="none" xmlns="http://www.w3.org/2000/svg">
<g id="twitter 1" clip-path="url(#clip0_43_534)">
<path id="Vector" d="M23.2757 5.39947C22.4101 5.77916 21.4878 6.03083 20.5262 6.15302C21.5155 5.5624 22.2705 4.63429 22.6254 3.5156C21.7031 4.06549 20.6848 4.4539 19.5996 4.67065C18.7238 3.73817 17.4757 3.16064 16.114 3.16064C13.4723 3.16064 11.3454 5.30492 11.3454 7.93361C11.3454 8.31184 11.3774 8.67552 11.456 9.02175C7.48895 8.82827 3.97869 6.92694 1.62057 4.03057C1.20888 4.74485 0.967395 5.5624 0.967395 6.44251C0.967395 8.09509 1.81841 9.56 3.08694 10.4081C2.32029 10.3936 1.5682 10.171 0.931027 9.8204C0.931027 9.83494 0.931027 9.85386 0.931027 9.87277C0.931027 12.1916 2.58505 14.1177 4.75406 14.5614C4.36564 14.6676 3.94232 14.7185 3.50299 14.7185C3.1975 14.7185 2.88909 14.701 2.5996 14.637C3.21786 16.5267 4.97227 17.916 7.05835 17.9611C5.43487 19.231 3.37352 19.9962 1.14196 19.9962C0.750641 19.9962 0.37532 19.9788 0 19.9308C2.11372 21.2938 4.61877 22.0721 7.3202 22.0721C16.1009 22.0721 20.9016 14.7985 20.9016 8.49368C20.9016 8.28275 20.8943 8.07909 20.8841 7.87688C21.8311 7.20479 22.6269 6.36541 23.2757 5.39947Z" fill="white"/>
</g>
<defs>
<clipPath id="clip0_43_534">
<rect width="23.2757" height="23.2757" fill="white" transform="translate(0 0.97876)"/>
</clipPath>
</defs>
</svg>
